<?xml version="1.0" standalone="no"?>
<!DOCTYPE svg PUBLIC "-//W3C//DTD SVG 20010904//EN"
 "http://www.w3.org/TR/2001/REC-SVG-20010904/DTD/svg10.dtd">
<svg version="1.0" xmlns="http://www.w3.org/2000/svg"
 width="462.000000pt" height="462.000000pt" viewBox="0 0 462.000000 462.000000"
 preserveAspectRatio="xMidYMid meet">
<metadata>
Created by potrace 1.11, written by Peter Selinger 2001-2013
</metadata>
<g transform="translate(0.000000,462.000000) scale(0.100000,-0.100000)"
fill="#000000" stroke="none">
<path d="M1259 2938 c0 -7 -1 -293 -2 -636 l-2 -623 115 3 115 3 0 278 c0 240
2 277 15 278 20 1 530 1 555 0 20 -1 20 -8 20 -278 l0 -278 113 -3 c102 -2
112 -1 113 15 0 10 1 82 1 161 1 78 2 141 3 140 2 -2 12 -29 24 -61 54 -157
167 -258 338 -305 79 -22 209 -27 289 -10 86 18 194 76 254 137 54 55 111 155
124 216 3 17 9 41 12 55 4 20 7 650 5 868 l-1 52 -115 0 c-85 0 -115 -3 -116
-12 0 -7 -2 -209 -3 -448 -3 -473 -5 -492 -61 -566 -31 -41 -90 -82 -131 -92
-16 -3 -65 -6 -109 -6 -63 0 -90 5 -127 23 -60 29 -108 84 -133 153 -18 49
-20 83 -22 483 -1 237 -2 438 -2 448 -1 16 -19 17 -229 17 l-228 0 1 -251 c0
-149 -3 -253 -9 -257 -8 -4 -370 -6 -551 -3 l-30 1 0 255 0 255 -112 0 c-83 0
-113 -3 -114 -12z"/>
<path d="M630 2579 c-245 -109 -452 -202 -461 -207 -12 -8 -15 -25 -15 -71 1
-33 6 -65 11 -70 6 -5 64 -32 130 -61 66 -29 163 -72 215 -95 238 -108 550
-245 561 -247 9 -2 12 23 12 95 0 53 -2 99 -4 102 -3 2 -137 63 -299 136 -281
125 -330 149 -302 149 12 0 286 120 452 197 41 19 92 42 113 50 20 8 37 18 38
22 3 31 3 175 -1 185 -4 9 -133 -44 -450 -185z"/>
<path d="M3487 2743 c-2 -5 -3 -48 -2 -98 l0 -90 55 -26 c30 -14 165 -75 299
-134 l243 -108 -34 -18 c-19 -10 -117 -54 -219 -99 -391 -174 -344 -139 -344
-250 0 -50 2 -93 6 -95 5 -4 107 38 256 106 23 10 173 77 334 149 161 71 297
134 302 139 9 9 14 129 6 134 -2 2 -69 32 -149 66 -80 35 -170 75 -200 88 -30
14 -116 52 -190 85 -74 32 -148 65 -165 73 -210 95 -192 88 -198 78z"/>
</g>
</svg>
